# xmcd
#
# Track frame offsets: 
#        182
#        22705
#        48770
#        76592
#        99042
#        114660
#        133782
#        149090
#        172145
#        183005
#
# Disc length: 2651 seconds
#
# Revision: 2
# Processed by: cddbd v1.5.2PL0 Copyright (c) Steve Scherf et al.
# Submitted via: ExactAudioCopyFreeDBPlugin 1.0
#
DISCID=740a590a
DTITLE=B.B.King - The King of the Blues
DYEAR=1900
DGENRE=Blues
TTITLE0=The thrill is gone
TTITLE1=Quess who
TTITLE2=Payin' the cost to be the boss
TTITLE3=Everyday I have the blues
TTITLE4=The letter
TTITLE5=Sweet sixteen
TTITLE6=How blue you can get
TTITLE7=You've done lost you're good thing now
TTITLE8=Catfish blues
TTITLE9=it's my own fault baby
EXTD=ID3G: 0
EXTT0=
EXTT1=
EXTT2=
EXTT3=
EXTT4=
EXTT5=
EXTT6=
EXTT7=
EXTT8=
EXTT9=
PLAYORDER=
